<svg width="678" height="679" viewBox="0 0 678 679" fill="none" xmlns="http://www.w3.org/2000/svg">
<path d="M311.333 1.33331C269.333 4.93331 226.133 16.9333 188 36C89.0665 85.2 20.9331 178.267 3.33315 288.667C0.399812 306.8 -0.800188 354.4 1.19981 373.6C9.46648 452.4 43.1998 523.2 98.6665 578.667C127.6 607.6 152 625.2 188 643.2C220.266 659.2 254 669.867 289.333 675.333C311.2 678.8 352.8 679.467 376 676.8C405.866 673.333 435.6 666.133 460.267 656.533C566.667 615.067 644.933 524.4 670 413.733C680.533 366.667 680.533 313.467 669.867 265.333C649.6 174.4 592.266 95.4667 511.466 47.6C472.133 24.2667 424.533 8.26669 378.667 2.66669C361.867 0.666687 328 -2.03848e-05 311.333 1.33331ZM382.533 30C450.133 39.8667 511.867 70.8 559.867 118.8C584.4 143.333 603.6 170 618.667 200.667C634.4 232.667 643.867 263.067 648.667 297.333C651.467 317.333 652 357.333 649.466 376C640.266 447.867 610 510.133 560 560C512.533 607.467 456.933 636.267 390 648.133C369.6 651.733 329.2 653.067 307.866 650.8C177.866 637.333 69.5998 545.067 36.7998 419.733C34.1331 410 31.0665 396.267 29.8665 389.333C27.0665 372.267 25.8665 324.667 27.8665 306.533C35.8665 236.4 65.5998 172.8 114 122.8C167.066 68 235.333 35.3333 312 28C328.8 26.4 364.8 27.4667 382.533 30Z" fill="#FFB400"/>
<path d="M403.333 77.0667C399.733 79.2 393.333 82.9334 389.2 85.6C379.6 91.8667 374.666 93.8667 363.6 96.0001C352.8 98.0001 348 101.333 348 106.667C348 109.6 347.066 111.067 344.133 112.533C338.533 115.467 333.333 122.267 333.333 126.667C333.333 130 332.533 130.667 327.066 132.533C309.333 138.533 298.666 154.933 300.4 173.467C301.333 184.667 306.8 193.733 315.6 199.067C322.533 203.333 322.533 203.333 322.666 210.267C322.666 214 322.266 217.467 321.733 217.733C320 218.8 298.8 215.2 288 212.133C282.4 210.667 270.4 206.667 261.333 203.2C222.8 189.2 198.4 184.8 187.2 190.133C179.333 193.867 171.733 204.133 157.733 230.133C138.4 266 131.733 288.4 131.466 318C131.333 334.533 132.533 338 140.4 342.667C146.533 346.4 161.466 346.133 180.933 342C222.933 332.933 229.6 331.733 244.666 331.067C280.666 329.333 286.4 336.4 284.933 380C284 407.867 280.666 429.067 262.666 521.733C250.266 585.333 250.133 598.4 261.866 609.333C265.2 612.267 266.666 612.667 275.733 612.667C287.733 612.533 299.733 610.133 307.333 606.4C310.266 604.933 317.466 599.733 323.2 595.067C336.533 584.267 343.733 580.667 368 572.667C391.866 564.8 395.866 562.8 401.733 555.867C408 548.533 410.666 540.533 411.6 526C412.666 508.667 409.466 489.867 397.333 442C385.866 397.067 378.666 363.067 378.666 354.533C378.666 347.6 382 342 387.2 339.733C392.533 337.467 401.466 338 435.733 342.133C452.133 344.133 468.666 345.467 474.533 345.2C484 344.667 485.466 344.267 493.6 338.933C518 323.067 530.266 299.467 524.933 278.4C521.733 265.333 508.933 234.4 501.733 222.133C498.133 216 490.933 206.933 485.333 201.2C476.933 192.667 474 190.533 468 188.8C458.666 186 454.933 186.8 436.666 195.333C411.733 207.2 387.066 214.933 368.8 216.8L359.6 217.733L360.4 213.867C360.666 211.733 362.266 204.933 363.866 198.667C365.333 192.4 366.933 183.867 367.466 179.6L368.266 171.867L375.733 168.533C385.333 164.267 389.066 160.8 390.666 154.4C391.733 150.8 393.6 148.267 397.866 145.467C403.866 141.333 405.333 139.067 405.333 134.267C405.333 132.267 410.133 126.533 419.333 117.333C427.066 109.6 433.333 102.8 433.333 102.267C433.333 100.4 421.333 107.867 413.333 114.667C401.733 124.667 397.466 126 392 121.6C388.133 118.4 388.133 112.8 392 108.533C395.733 104.8 395.066 104.533 388.8 107.6C384.266 109.733 383.866 109.733 381.333 107.333C379.866 106 378.4 105.2 378.133 105.467C377.866 105.733 379.6 111.067 382 117.333C386.133 127.733 390.266 133.333 394.933 135.067C396.266 135.467 396.266 136.267 395.2 138.133C394 140.133 392.133 140.667 385.733 140.533C378.666 140.4 377.733 140.667 378.266 142.8C378.666 144.133 380.4 146.133 382.133 147.333C386.933 150.4 386.266 154.4 380.533 156.8C377.733 158 374.133 158.533 372.133 158C368.133 157.067 346.933 135.6 345.866 131.467C344.8 127.067 347.466 121.333 350.666 121.333C352.133 121.333 356.8 124 360.933 127.333C365.066 130.533 368.666 133.067 368.933 132.8C369.2 132.667 366 127.467 362 121.467C358 115.467 354.666 109.333 354.666 108C354.666 103.467 358.266 101.467 365.866 101.6C374 101.867 376 100.8 395.866 86.8C413.733 74.1334 417.466 69.2 403.333 77.0667ZM335.333 137.867C337.733 139.6 337.733 139.867 334.266 144C330 148.933 329.6 151.333 333.2 149.333C334.666 148.667 338.133 148 340.933 148C347.466 148 351.2 151.333 355.866 161.2C358.933 167.733 359.333 170.267 359.2 181.333C359.066 196.133 356 208.267 351.733 211.333C347.866 214 340.8 213.867 338.533 211.2C336 208.133 336.666 200.667 340.133 195.067C343.866 188.8 344 178.267 340.4 170.933C338.4 166.8 337.466 166 334.266 166.4C329.733 166.933 326.666 164.667 326.666 161.067C326.666 158.8 326.266 158.667 324.666 160C323.6 160.933 322.666 163.6 322.666 166C322.666 169.467 323.733 171.067 327.333 173.867C332.4 177.733 333.066 180.667 330.533 188C329.066 192.267 328.8 192.267 322.4 191.733C314.8 190.933 310.133 187.333 307.866 180.267C305.6 173.6 306.933 157.733 310.4 151.333C316.533 139.333 328.533 132.8 335.333 137.867ZM469.466 206C480.266 212.933 491.733 231.467 503.333 260.267C507.333 270.4 510.666 280.533 510.666 282.667C510.666 291.067 501.333 291.067 452.666 283.2C416.266 277.333 389.6 275.867 378.266 279.2C368.266 282.133 362.133 287.6 360.133 295.2C355.066 315.467 364.4 375.067 384.8 452.133C394.666 489.467 396.4 498.933 396.533 518C396.666 533.467 396.4 536 393.6 541.333C392 544.667 389.333 548.267 387.6 549.467C386 550.667 376 554.4 365.333 558C340.8 566 328.933 571.6 318.4 580.133C308 588.667 302.266 591.2 298.666 589.333C294.8 587.333 293.333 583.6 293.333 576.4C293.333 568.533 300.8 524.933 313.2 460C318.266 433.2 323.466 405.067 324.533 397.333C334.266 331.733 328.133 293.333 306.266 282.8C292 275.867 250.933 276.133 201.066 283.333C175.066 287.2 165.866 287.467 159.333 284.8C149.866 280.8 151.2 274.133 168.4 241.6C185.866 208.533 190.266 204 205.333 204C215.6 204 229.733 207.6 253.866 216.267C291.733 229.867 310.4 233.733 339.333 233.733C362.533 233.867 379.866 231.333 402 224.667C415.866 220.4 423.733 217.333 448.666 206.133C460.133 201.067 461.733 201.067 469.466 206ZM434.666 288.667C479.6 295.733 494.8 297.6 503.066 297.067C507.2 296.8 510.666 296.667 510.666 296.933C510.666 297.2 509.333 300 507.866 303.067C503.333 311.867 496.666 319.333 487.866 325.2C480.4 330.267 478.933 330.667 470.8 330.667C466 330.667 450 329.067 435.333 327.333C399.2 322.8 391.2 322.8 382 327.333C377.733 329.333 373.733 332.533 372.4 334.8C371.066 336.933 369.733 338.667 369.2 338.667C368.8 338.667 367.6 330.667 366.666 320.933C364.666 299.733 365.733 293.867 372.533 288.667C381.733 281.6 389.866 281.6 434.666 288.667ZM298.933 288C308.933 290.933 316.666 301.2 320 315.867C322.133 325.2 321.066 364.267 318 388C314.533 414.533 305.866 460.533 297.333 498C288 538.8 283.866 563.2 283.6 578.267C283.333 587.6 283.733 589.6 286.4 593.2L289.466 597.333H284.133C272.933 597.333 268 591.467 268 578.133C268 574 271.6 552.267 276 529.6C295.866 428.933 299.333 405.733 299.333 374C299.333 345.6 298 337.867 291.733 329.2C285.333 320.4 276.133 316.933 257.066 316.267C238.533 315.6 228.533 316.933 191.6 324.8C161.6 331.2 151.733 332 147.733 328.4C144.666 325.6 144.4 311.733 147.466 298.533C149.2 290.667 150 289.333 151.733 290.133C164.133 295.467 174.266 295.467 206.533 290.667C216.533 289.2 230.133 287.467 236.666 286.667C251.866 285.2 292.4 286 298.933 288Z" fill="#FFB400"/>
</svg>
