<svg width="22" height="22" viewBox="0 0 22 22" fill="none" xmlns="http://www.w3.org/2000/svg">
<path d="M11 0.333313C12.4145 0.333313 13.7711 0.895216 14.7713 1.89541C15.7715 2.8956 16.3334 4.25216 16.3334 5.66665C16.3334 7.08113 15.7715 8.43769 14.7713 9.43788C13.7711 10.4381 12.4145 11 11 11C9.58555 11 8.229 10.4381 7.2288 9.43788C6.22861 8.43769 5.66671 7.08113 5.66671 5.66665C5.66671 4.25216 6.22861 2.8956 7.2288 1.89541C8.229 0.895216 9.58555 0.333313 11 0.333313ZM11 13.6666C16.8934 13.6666 21.6667 16.0533 21.6667 19V21.6666H0.333374V19C0.333374 16.0533 5.10671 13.6666 11 13.6666Z" fill="white"/>
</svg>
