<svg width="718" height="736" viewBox="0 0 718 736" fill="none" xmlns="http://www.w3.org/2000/svg">
<path d="M327.333 29.3333C285.333 32.9333 242.133 44.9333 204 64C105.066 113.2 36.9331 206.267 19.3331 316.667C16.3998 334.8 15.1998 382.4 17.1998 401.6C25.4665 480.4 59.1998 551.2 114.666 606.667C143.6 635.6 168 653.2 204 671.2C236.266 687.2 270 697.867 305.333 703.333C327.2 706.8 368.8 707.467 392 704.8C421.866 701.333 451.6 694.133 476.266 684.533C582.667 643.067 660.933 552.4 686 441.733C696.533 394.667 696.533 341.467 685.867 293.333C665.6 202.4 608.267 123.467 527.466 75.6C488.133 52.2667 440.533 36.2667 394.666 30.6667C377.866 28.6667 344 28 327.333 29.3333ZM398.533 58C466.133 67.8667 527.866 98.8 575.867 146.8C600.4 171.333 619.6 198 634.667 228.667C650.4 260.667 659.867 291.067 664.667 325.333C667.467 345.333 668 385.333 665.467 404C656.267 475.867 626 538.133 576 588C528.533 635.467 472.933 664.267 406 676.133C385.6 679.733 345.2 681.067 323.866 678.8C193.866 665.333 85.5998 573.067 52.7998 447.733C50.1331 438 47.0665 424.267 45.8665 417.333C43.0665 400.267 41.8665 352.667 43.8665 334.533C51.8665 264.4 81.5998 200.8 130 150.8C183.066 96 251.333 63.3333 328 56C344.8 54.4 380.8 55.4667 398.533 58Z" fill="#FFB400"/>
<path d="M419.333 105.067C415.733 107.2 409.333 110.933 405.2 113.6C395.6 119.867 390.666 121.867 379.6 124C368.8 126 364 129.333 364 134.667C364 137.6 363.066 139.067 360.133 140.533C354.533 143.467 349.333 150.267 349.333 154.667C349.333 158 348.533 158.667 343.066 160.533C325.333 166.533 314.666 182.933 316.4 201.467C317.333 212.667 322.8 221.733 331.6 227.067C338.533 231.333 338.533 231.333 338.666 238.267C338.666 242 338.266 245.467 337.733 245.733C336 246.8 314.8 243.2 304 240.133C298.4 238.667 286.4 234.667 277.333 231.2C238.8 217.2 214.4 212.8 203.2 218.133C195.333 221.867 187.733 232.133 173.733 258.133C154.4 294 147.733 316.4 147.466 346C147.333 362.533 148.533 366 156.4 370.667C162.533 374.4 177.466 374.133 196.933 370C238.933 360.933 245.6 359.733 260.666 359.067C296.666 357.333 302.4 364.4 300.933 408C300 435.867 296.666 457.067 278.666 549.733C266.266 613.333 266.133 626.4 277.866 637.333C281.2 640.267 282.666 640.667 291.733 640.667C303.733 640.533 315.733 638.133 323.333 634.4C326.266 632.933 333.466 627.733 339.2 623.067C352.533 612.267 359.733 608.667 384 600.667C407.866 592.8 411.866 590.8 417.733 583.867C424 576.533 426.666 568.533 427.6 554C428.666 536.667 425.466 517.867 413.333 470C401.866 425.067 394.666 391.067 394.666 382.533C394.666 375.6 398 370 403.2 367.733C408.533 365.467 417.466 366 451.733 370.133C468.133 372.133 484.666 373.467 490.533 373.2C500 372.667 501.466 372.267 509.6 366.933C534 351.067 546.266 327.467 540.933 306.4C537.733 293.333 524.933 262.4 517.733 250.133C514.133 244 506.933 234.933 501.333 229.2C492.933 220.667 490 218.533 484 216.8C474.666 214 470.933 214.8 452.666 223.333C427.733 235.2 403.066 242.933 384.8 244.8L375.6 245.733L376.4 241.867C376.666 239.733 378.266 232.933 379.866 226.667C381.333 220.4 382.933 211.867 383.466 207.6L384.266 199.867L391.733 196.533C401.333 192.267 405.066 188.8 406.666 182.4C407.733 178.8 409.6 176.267 413.866 173.467C419.866 169.333 421.333 167.067 421.333 162.267C421.333 160.267 426.133 154.533 435.333 145.333C443.066 137.6 449.333 130.8 449.333 130.267C449.333 128.4 437.333 135.867 429.333 142.667C417.733 152.667 413.466 154 408 149.6C404.133 146.4 404.133 140.8 408 136.533C411.733 132.8 411.066 132.533 404.8 135.6C400.266 137.733 399.866 137.733 397.333 135.333C395.866 134 394.4 133.2 394.133 133.467C393.866 133.733 395.6 139.067 398 145.333C402.133 155.733 406.266 161.333 410.933 163.067C412.266 163.467 412.266 164.267 411.2 166.133C410 168.133 408.133 168.667 401.733 168.533C394.666 168.4 393.733 168.667 394.266 170.8C394.666 172.133 396.4 174.133 398.133 175.333C402.933 178.4 402.266 182.4 396.533 184.8C393.733 186 390.133 186.533 388.133 186C384.133 185.067 362.933 163.6 361.866 159.467C360.8 155.067 363.466 149.333 366.666 149.333C368.133 149.333 372.8 152 376.933 155.333C381.066 158.533 384.666 161.067 384.933 160.8C385.2 160.667 382 155.467 378 149.467C374 143.467 370.666 137.333 370.666 136C370.666 131.467 374.266 129.467 381.866 129.6C390 129.867 392 128.8 411.866 114.8C429.733 102.133 433.466 97.2001 419.333 105.067ZM351.333 165.867C353.733 167.6 353.733 167.867 350.266 172C346 176.933 345.6 179.333 349.2 177.333C350.666 176.667 354.133 176 356.933 176C363.466 176 367.2 179.333 371.866 189.2C374.933 195.733 375.333 198.267 375.2 209.333C375.066 224.133 372 236.267 367.733 239.333C363.866 242 356.8 241.867 354.533 239.2C352 236.133 352.666 228.667 356.133 223.067C359.866 216.8 360 206.267 356.4 198.933C354.4 194.8 353.466 194 350.266 194.4C345.733 194.933 342.666 192.667 342.666 189.067C342.666 186.8 342.266 186.667 340.666 188C339.6 188.933 338.666 191.6 338.666 194C338.666 197.467 339.733 199.067 343.333 201.867C348.4 205.733 349.066 208.667 346.533 216C345.066 220.267 344.8 220.267 338.4 219.733C330.8 218.933 326.133 215.333 323.866 208.267C321.6 201.6 322.933 185.733 326.4 179.333C332.533 167.333 344.533 160.8 351.333 165.867ZM485.466 234C496.266 240.933 507.733 259.467 519.333 288.267C523.333 298.4 526.666 308.533 526.666 310.667C526.666 319.067 517.333 319.067 468.666 311.2C432.266 305.333 405.6 303.867 394.266 307.2C384.266 310.133 378.133 315.6 376.133 323.2C371.066 343.467 380.4 403.067 400.8 480.133C410.666 517.467 412.4 526.933 412.533 546C412.666 561.467 412.4 564 409.6 569.333C408 572.667 405.333 576.267 403.6 577.467C402 578.667 392 582.4 381.333 586C356.8 594 344.933 599.6 334.4 608.133C324 616.667 318.266 619.2 314.666 617.333C310.8 615.333 309.333 611.6 309.333 604.4C309.333 596.533 316.8 552.933 329.2 488C334.266 461.2 339.466 433.067 340.533 425.333C350.266 359.733 344.133 321.333 322.266 310.8C308 303.867 266.933 304.133 217.066 311.333C191.066 315.2 181.866 315.467 175.333 312.8C165.866 308.8 167.2 302.133 184.4 269.6C201.866 236.533 206.266 232 221.333 232C231.6 232 245.733 235.6 269.866 244.267C307.733 257.867 326.4 261.733 355.333 261.733C378.533 261.867 395.866 259.333 418 252.667C431.866 248.4 439.733 245.333 464.666 234.133C476.133 229.067 477.733 229.067 485.466 234ZM450.666 316.667C495.6 323.733 510.8 325.6 519.066 325.067C523.2 324.8 526.666 324.667 526.666 324.933C526.666 325.2 525.333 328 523.866 331.067C519.333 339.867 512.666 347.333 503.866 353.2C496.4 358.267 494.933 358.667 486.8 358.667C482 358.667 466 357.067 451.333 355.333C415.2 350.8 407.2 350.8 398 355.333C393.733 357.333 389.733 360.533 388.4 362.8C387.066 364.933 385.733 366.667 385.2 366.667C384.8 366.667 383.6 358.667 382.666 348.933C380.666 327.733 381.733 321.867 388.533 316.667C397.733 309.6 405.866 309.6 450.666 316.667ZM314.933 316C324.933 318.933 332.666 329.2 336 343.867C338.133 353.2 337.066 392.267 334 416C330.533 442.533 321.866 488.533 313.333 526C304 566.8 299.866 591.2 299.6 606.267C299.333 615.6 299.733 617.6 302.4 621.2L305.466 625.333H300.133C288.933 625.333 284 619.467 284 606.133C284 602 287.6 580.267 292 557.6C311.866 456.933 315.333 433.733 315.333 402C315.333 373.6 314 365.867 307.733 357.2C301.333 348.4 292.133 344.933 273.066 344.267C254.533 343.6 244.533 344.933 207.6 352.8C177.6 359.2 167.733 360 163.733 356.4C160.666 353.6 160.4 339.733 163.466 326.533C165.2 318.667 166 317.333 167.733 318.133C180.133 323.467 190.266 323.467 222.533 318.667C232.533 317.2 246.133 315.467 252.666 314.667C267.866 313.2 308.4 314 314.933 316Z" fill="#FFB400"/>
</svg>
